<svg width="113" height="24" viewBox="0 0 113 24" fill="none" xmlns="http://www.w3.org/2000/svg">
<path d="M4.032 0.599998H8.8L12.448 23H8.928L8.288 18.552V18.616H4.288L3.648 23H0.384L4.032 0.599998ZM7.872 15.576L6.304 4.504H6.24L4.704 15.576H7.872ZM13.8358 0.599998H17.3558V10.04L21.8358 0.599998H25.3558L21.1638 8.824L25.4198 23H21.7398L18.7638 13.016L17.3558 15.864V23H13.8358V0.599998ZM26.7658 0.599998H32.0778C33.8911 0.599998 35.2138 1.02667 36.0458 1.88C36.8778 2.712 37.2938 4.00267 37.2938 5.752V6.648C37.2938 7.8 37.1018 8.73867 36.7178 9.464C36.3551 10.1893 35.7898 10.712 35.0218 11.032V11.096C36.7711 11.6933 37.6458 13.2507 37.6458 15.768V17.688C37.6458 19.416 37.1871 20.7387 36.2698 21.656C35.3738 22.552 34.0511 23 32.3018 23H26.7658V0.599998ZM31.6618 9.72C32.3658 9.72 32.8884 9.53867 33.2298 9.176C33.5924 8.81333 33.7738 8.20533 33.7738 7.352V6.104C33.7738 5.29333 33.6244 4.70667 33.3258 4.344C33.0484 3.98133 32.6004 3.8 31.9818 3.8H30.2858V9.72H31.6618ZM32.3018 19.8C32.9204 19.8 33.3791 19.64 33.6778 19.32C33.9764 18.9787 34.1258 18.4027 34.1258 17.592V15.64C34.1258 14.616 33.9444 13.912 33.5818 13.528C33.2404 13.1227 32.6644 12.92 31.8538 12.92H30.2858V19.8H32.3018ZM42.1033 0.599998H46.8713L50.5193 23H46.9993L46.3593 18.552V18.616H42.3593L41.7193 23H38.4553L42.1033 0.599998ZM45.9433 15.576L44.3753 4.504H44.3113L42.7753 15.576H45.9433ZM51.907 0.599998H57.123C58.9363 0.599998 60.259 1.02667 61.091 1.88C61.923 2.712 62.339 4.00267 62.339 5.752V7.128C62.339 9.45333 61.571 10.9253 60.035 11.544V11.608C60.8883 11.864 61.4857 12.3867 61.827 13.176C62.1897 13.9653 62.371 15.0213 62.371 16.344V20.28C62.371 20.92 62.3923 21.4427 62.435 21.848C62.4777 22.232 62.5843 22.616 62.755 23H59.171C59.043 22.6373 58.9577 22.296 58.915 21.976C58.8723 21.656 58.851 21.08 58.851 20.248V16.152C58.851 15.128 58.6803 14.4133 58.339 14.008C58.019 13.6027 57.4537 13.4 56.643 13.4H55.427V23H51.907V0.599998ZM56.707 10.2C57.411 10.2 57.9337 10.0187 58.275 9.656C58.6377 9.29333 58.819 8.68533 58.819 7.832V6.104C58.819 5.29333 58.6697 4.70667 58.371 4.344C58.0937 3.98133 57.6457 3.8 57.027 3.8H55.427V10.2H56.707ZM69.0693 23.32C67.3626 23.32 66.0719 22.84 65.1973 21.88C64.3226 20.8987 63.8853 19.5013 63.8853 17.688V16.408H67.2133V17.944C67.2133 19.3947 67.8213 20.12 69.0373 20.12C69.6346 20.12 70.0826 19.9493 70.3813 19.608C70.7013 19.2453 70.8613 18.6693 70.8613 17.88C70.8613 16.9413 70.6479 16.12 70.2213 15.416C69.7946 14.6907 69.0053 13.8267 67.8533 12.824C66.4026 11.544 65.3893 10.392 64.8133 9.368C64.2373 8.32267 63.9493 7.14933 63.9493 5.848C63.9493 4.07733 64.3973 2.712 65.2933 1.752C66.1893 0.770665 67.4906 0.279999 69.1973 0.279999C70.8826 0.279999 72.1519 0.770665 73.0053 1.752C73.8799 2.712 74.3173 4.09867 74.3173 5.912V6.84H70.9893V5.688C70.9893 4.92 70.8399 4.36533 70.5413 4.024C70.2426 3.66133 69.8053 3.48 69.2293 3.48C68.0559 3.48 67.4693 4.19467 67.4693 5.624C67.4693 6.43467 67.6826 7.192 68.1093 7.896C68.5573 8.6 69.3573 9.45333 70.5093 10.456C71.9813 11.736 72.9946 12.8987 73.5493 13.944C74.1039 14.9893 74.3813 16.216 74.3813 17.624C74.3813 19.4587 73.9226 20.8667 73.0053 21.848C72.1093 22.8293 70.7973 23.32 69.0693 23.32ZM76.0795 0.599998H79.5995V9.72H83.3755V0.599998H86.8955V23H83.3755V12.92H79.5995V23H76.0795V0.599998ZM94.285 23.32C92.557 23.32 91.2343 22.8293 90.317 21.848C89.3997 20.8667 88.941 19.48 88.941 17.688V5.912C88.941 4.12 89.3997 2.73333 90.317 1.752C91.2343 0.770665 92.557 0.279999 94.285 0.279999C96.013 0.279999 97.3357 0.770665 98.253 1.752C99.1703 2.73333 99.629 4.12 99.629 5.912V17.688C99.629 19.48 99.1703 20.8667 98.253 21.848C97.3357 22.8293 96.013 23.32 94.285 23.32ZM94.285 20.12C95.501 20.12 96.109 19.384 96.109 17.912V5.688C96.109 4.216 95.501 3.48 94.285 3.48C93.069 3.48 92.461 4.216 92.461 5.688V17.912C92.461 19.384 93.069 20.12 94.285 20.12ZM104.294 11.544L100.422 0.599998H104.134L106.502 7.832H106.566L108.998 0.599998H112.326L108.454 11.544L112.518 23H108.806L106.246 15.192H106.182L103.558 23H100.23L104.294 11.544Z" fill="#C7C7C7"/>
</svg>
